<svg id="svg" version="1.1" xmlns="http://www.w3.org/2000/svg" xmlns:xlink="http://www.w3.org/1999/xlink" width="400" height="400" viewBox="0, 0, 400,400"><g id="svgg"><path id="path0" d="M126.300 132.700 L 58.800 200.201 58.800 213.100 L 58.800 226.000 68.501 226.000 L 78.202 226.000 110.400 193.800 L 142.598 161.600 152.193 161.600 L 161.787 161.600 177.805 145.600 L 193.823 129.600 200.213 129.600 L 206.604 129.600 222.600 145.600 L 238.596 161.600 248.195 161.600 L 257.793 161.600 290.002 193.800 L 322.212 226.000 332.106 226.000 L 342.000 226.000 342.000 213.103 L 342.000 200.206 274.502 132.703 L 207.003 65.200 200.401 65.200 L 193.799 65.200 126.300 132.700 M184.080 152.069 L 174.400 161.737 174.400 200.269 C 174.400 221.461,174.482 238.800,174.582 238.800 C 174.682 238.800,179.104 234.480,184.408 229.200 L 194.052 219.600 200.307 219.600 L 206.563 219.600 216.281 229.289 L 226.000 238.978 226.000 200.192 L 226.000 161.406 216.503 151.903 L 207.006 142.400 200.383 142.400 L 193.760 142.400 184.080 152.069 M184.097 242.103 L 174.400 251.806 174.400 284.014 L 174.400 316.222 184.119 325.911 L 193.837 335.600 200.222 335.600 L 206.606 335.600 216.303 325.897 L 226.000 316.194 226.000 283.816 L 226.000 251.438 216.511 241.919 L 207.022 232.400 200.408 232.400 L 193.794 232.400 184.097 242.103 " stroke="none" fill="#fafafa" fill-rule="evenodd"></path><path id="path1" d="M97.500 97.500 L 0.400 194.601 0.400 219.746 L 0.400 244.892 6.203 250.776 C 9.395 254.013,11.870 256.811,11.703 256.994 C 11.536 257.178,11.595 257.217,11.833 257.082 C 12.071 256.947,13.123 257.707,14.172 258.772 C 15.283 259.899,15.891 260.797,15.629 260.924 C 15.367 261.050,15.393 261.087,15.690 261.014 C 15.971 260.944,21.330 265.995,27.600 272.238 L 39.000 283.588 68.400 283.602 C 84.570 283.609,98.025 283.612,98.300 283.608 C 98.575 283.603,98.800 283.274,98.800 282.875 C 98.800 282.101,100.181 280.400,100.810 280.400 C 101.019 280.400,101.459 279.754,101.789 278.964 C 102.119 278.174,102.723 277.441,103.131 277.334 C 103.539 277.227,104.180 276.443,104.556 275.591 C 104.932 274.739,105.594 273.929,106.027 273.792 C 106.459 273.654,107.072 272.922,107.389 272.165 C 107.705 271.408,108.287 270.666,108.682 270.517 C 109.680 270.139,110.291 269.474,110.119 268.956 C 110.039 268.716,110.673 267.906,111.529 267.156 C 112.385 266.406,113.212 265.393,113.367 264.904 C 113.522 264.416,114.150 263.721,114.762 263.359 C 115.374 262.997,116.095 262.094,116.363 261.351 C 116.680 260.476,117.114 260.000,117.595 260.000 C 118.090 260.000,118.493 259.531,118.802 258.593 C 119.090 257.721,119.710 256.957,120.433 256.583 C 121.123 256.226,121.600 255.657,121.600 255.192 C 121.600 254.735,122.265 253.924,123.187 253.256 C 124.059 252.624,124.665 251.998,124.532 251.866 C 124.212 251.545,125.504 249.600,126.038 249.600 C 126.625 249.600,127.748 248.415,127.447 248.113 C 127.164 247.831,128.346 246.400,128.862 246.400 C 129.048 246.400,129.200 267.910,129.200 294.200 C 129.200 326.276,129.334 342.000,129.606 342.000 C 129.829 342.000,143.014 355.050,158.906 371.000 L 187.800 400.000 200.194 400.000 L 212.588 400.000 230.053 382.700 C 239.658 373.185,252.801 360.189,259.259 353.821 L 271.000 342.242 271.200 294.285 L 271.400 246.328 275.800 250.766 C 278.220 253.206,280.401 255.406,280.647 255.655 C 281.217 256.232,303.649 278.665,304.249 279.258 C 304.496 279.502,305.666 280.624,306.849 281.751 L 309.000 283.800 335.228 283.694 L 361.455 283.589 380.374 264.643 C 390.780 254.222,399.449 245.450,399.640 245.148 C 399.831 244.847,399.991 233.261,399.994 219.401 L 400.000 194.202 303.100 97.301 L 206.200 0.400 200.400 0.400 L 194.599 0.400 97.500 97.500 M207.000 27.028 C 207.440 27.360,246.635 66.347,294.100 113.666 L 380.400 199.701 380.400 219.548 L 380.400 239.395 367.702 252.098 L 355.005 264.800 335.402 264.800 L 315.800 264.799 284.000 232.965 L 252.200 201.132 252.099 268.266 L 251.998 335.400 229.500 357.900 L 207.003 380.400 200.197 380.400 L 193.390 380.400 170.831 357.827 L 148.271 335.255 148.553 268.461 C 148.708 231.682,148.681 201.573,148.493 201.457 C 148.305 201.341,133.853 215.546,116.377 233.023 L 84.602 264.800 65.203 264.800 L 45.805 264.800 32.902 251.902 L 20.000 239.005 20.000 219.603 L 20.000 200.201 106.900 113.300 L 193.799 26.400 200.000 26.413 C 204.888 26.423,206.369 26.553,207.000 27.028 " stroke="none" fill="#241c24" fill-rule="evenodd"></path><path id="path2" d="M189.890 3.858 C 188.134 5.541,187.762 6.000,188.155 6.000 C 188.431 6.000,192.053 2.320,191.914 2.181 C 191.840 2.107,190.930 2.862,189.890 3.858 M215.258 8.993 C 215.776 9.539,216.361 9.989,216.558 9.993 C 216.756 9.997,216.431 9.550,215.838 9.000 C 214.444 7.708,214.035 7.703,215.258 8.993 M179.429 14.229 C 178.649 15.009,178.630 15.240,179.369 14.957 C 179.682 14.836,180.036 14.482,180.157 14.169 C 180.440 13.430,180.209 13.449,179.429 14.229 M174.229 19.429 C 173.449 20.209,173.430 20.440,174.169 20.157 C 174.482 20.036,174.836 19.682,174.957 19.369 C 175.240 18.630,175.009 18.649,174.229 19.429 M230.007 23.475 C 230.016 23.880,231.973 25.765,232.167 25.554 C 232.245 25.469,231.789 24.894,231.154 24.275 C 230.519 23.656,230.003 23.296,230.007 23.475 M164.034 29.700 C 163.140 30.635,162.407 31.526,162.404 31.681 C 162.402 31.836,163.210 31.141,164.200 30.136 C 165.190 29.132,166.000 28.241,166.000 28.155 C 166.000 27.763,165.543 28.122,164.034 29.700 M160.267 33.297 C 159.269 34.345,159.725 34.675,160.752 33.648 C 161.202 33.198,161.442 32.761,161.285 32.678 C 161.128 32.595,160.670 32.873,160.267 33.297 M239.600 33.317 C 239.930 33.603,240.447 34.098,240.749 34.418 C 241.219 34.916,241.235 34.877,240.860 34.147 C 240.619 33.678,240.102 33.183,239.711 33.046 C 239.092 32.830,239.078 32.865,239.600 33.317 M156.075 37.616 C 155.264 38.372,154.999 38.800,155.342 38.800 C 155.419 38.800,155.969 38.350,156.562 37.800 C 157.156 37.250,157.486 36.800,157.296 36.800 C 157.106 36.800,156.557 37.167,156.075 37.616 M141.455 52.255 C 140.875 52.835,140.400 53.499,140.400 53.731 C 140.400 53.963,140.625 53.874,140.900 53.532 C 141.175 53.191,141.805 52.527,142.300 52.056 C 142.795 51.585,143.045 51.200,142.855 51.200 C 142.665 51.200,142.035 51.675,141.455 52.255 M136.715 56.849 C 136.338 57.246,136.158 57.639,136.315 57.722 C 136.472 57.805,136.908 57.548,137.285 57.151 C 137.662 56.754,137.842 56.361,137.685 56.278 C 137.528 56.195,137.092 56.452,136.715 56.849 M132.676 60.974 C 132.278 61.276,132.098 61.602,132.276 61.698 C 132.454 61.794,132.915 61.542,133.300 61.137 C 134.116 60.278,133.727 60.177,132.676 60.974 M158.884 99.566 C 139.680 118.670,123.350 134.863,122.594 135.550 L 121.221 136.800 102.802 136.800 L 84.383 136.800 69.898 151.100 C 61.931 158.965,47.535 173.220,37.907 182.777 L 20.400 200.153 20.400 219.585 L 20.400 239.016 33.314 251.908 L 46.228 264.800 65.226 264.800 L 84.224 264.800 116.372 232.613 C 134.053 214.911,148.673 200.521,148.860 200.637 C 149.047 200.753,149.200 219.917,149.200 243.224 L 149.200 285.600 161.536 285.600 L 173.872 285.600 174.136 275.335 C 174.281 269.689,174.400 262.006,174.400 258.260 L 174.400 251.450 184.026 241.925 L 193.652 232.400 200.329 232.400 L 207.006 232.400 216.703 242.103 L 226.400 251.806 226.400 268.703 L 226.400 285.600 238.800 285.600 L 251.200 285.600 251.200 310.496 L 251.200 335.392 244.300 342.396 L 237.400 349.400 244.506 342.400 L 251.611 335.400 251.593 268.046 C 251.582 231.002,251.683 200.584,251.816 200.450 C 251.950 200.317,266.531 214.741,284.219 232.504 L 316.380 264.800 335.441 264.800 L 354.502 264.800 367.451 251.789 L 380.400 238.777 380.400 219.661 L 380.400 200.545 360.100 180.301 C 348.935 169.167,335.750 156.083,330.800 151.226 C 325.850 146.369,320.518 141.136,318.951 139.597 L 316.102 136.800 297.619 136.800 L 279.136 136.800 256.737 114.500 C 244.417 102.235,234.216 92.117,234.069 92.016 C 233.921 91.914,258.145 116.216,287.900 146.019 L 342.000 200.207 342.000 213.103 L 342.000 226.000 332.099 226.000 L 322.198 226.000 290.000 193.800 L 257.802 161.600 248.199 161.600 L 238.596 161.600 222.600 145.600 L 206.604 129.600 200.213 129.600 L 193.823 129.600 177.805 145.600 L 161.787 161.600 152.193 161.600 L 142.598 161.600 110.400 193.800 L 78.202 226.000 68.501 226.000 L 58.800 226.000 58.800 213.100 L 58.800 200.199 126.300 132.707 L 193.800 65.214 200.400 65.096 L 207.000 64.979 200.400 64.905 L 193.800 64.831 158.884 99.566 M117.616 76.075 C 117.167 76.557,116.800 77.106,116.800 77.296 C 116.800 77.486,117.250 77.156,117.800 76.562 C 118.350 75.969,118.800 75.419,118.800 75.342 C 118.800 74.999,118.372 75.264,117.616 76.075 M285.600 79.317 C 285.930 79.603,286.447 80.098,286.749 80.418 C 287.219 80.916,287.235 80.877,286.860 80.147 C 286.619 79.678,286.102 79.183,285.711 79.046 C 285.092 78.830,285.078 78.865,285.600 79.317 M113.133 80.400 C 112.767 80.803,112.557 81.223,112.667 81.333 C 112.867 81.533,114.400 80.177,114.400 79.800 C 114.400 79.394,113.781 79.687,113.133 80.400 M109.700 84.034 C 108.122 85.543,107.763 86.000,108.155 86.000 C 108.241 86.000,109.132 85.190,110.136 84.200 C 111.141 83.210,111.836 82.402,111.681 82.404 C 111.526 82.407,110.635 83.140,109.700 84.034 M295.258 88.993 C 295.776 89.539,296.361 89.989,296.558 89.993 C 296.756 89.997,296.431 89.550,295.838 89.000 C 294.444 87.708,294.035 87.703,295.258 88.993 M231.200 89.325 C 231.200 89.394,231.785 89.979,232.500 90.625 L 233.800 91.800 232.625 90.500 C 231.530 89.288,231.200 89.016,231.200 89.325 M99.429 94.229 C 98.649 95.009,98.630 95.240,99.369 94.957 C 99.682 94.836,100.036 94.482,100.157 94.169 C 100.440 93.430,100.209 93.449,99.429 94.229 M94.229 99.429 C 93.449 100.209,93.430 100.440,94.169 100.157 C 94.482 100.036,94.836 99.682,94.957 99.369 C 95.240 98.630,95.009 98.649,94.229 99.429 M310.007 103.475 C 310.016 103.880,311.973 105.765,312.167 105.554 C 312.245 105.469,311.789 104.894,311.154 104.275 C 310.519 103.656,310.003 103.296,310.007 103.475 M84.034 109.700 C 83.140 110.635,82.407 111.526,82.404 111.681 C 82.402 111.836,83.210 111.141,84.200 110.136 C 85.190 109.132,86.000 108.241,86.000 108.155 C 86.000 107.763,85.543 108.122,84.034 109.700 M80.267 113.297 C 79.269 114.345,79.725 114.675,80.752 113.648 C 81.202 113.198,81.442 112.761,81.285 112.678 C 81.128 112.595,80.670 112.873,80.267 113.297 M319.600 113.317 C 319.930 113.603,320.447 114.098,320.749 114.418 C 321.219 114.916,321.235 114.877,320.860 114.147 C 320.619 113.678,320.102 113.183,319.711 113.046 C 319.092 112.830,319.078 112.865,319.600 113.317 M76.075 117.616 C 75.264 118.372,74.999 118.800,75.342 118.800 C 75.419 118.800,75.969 118.350,76.562 117.800 C 77.156 117.250,77.486 116.800,77.296 116.800 C 77.106 116.800,76.557 117.167,76.075 117.616 M209.766 133.405 C 211.435 135.057,212.800 136.497,212.800 136.605 C 212.800 136.712,207.220 136.800,200.400 136.800 C 193.580 136.800,188.000 136.686,188.000 136.547 C 188.000 136.408,189.295 134.968,190.878 133.347 L 193.756 130.400 200.244 130.400 L 206.732 130.400 209.766 133.405 M60.852 132.865 C 60.194 133.919,60.414 134.062,61.285 133.148 C 61.662 132.753,61.833 132.344,61.665 132.240 C 61.498 132.137,61.132 132.418,60.852 132.865 M56.715 136.849 C 56.338 137.246,56.158 137.639,56.315 137.722 C 56.472 137.805,56.908 137.548,57.285 137.151 C 57.662 136.754,57.842 136.361,57.685 136.278 C 57.528 136.195,57.092 136.452,56.715 136.849 M52.255 141.455 C 51.675 142.035,51.200 142.699,51.200 142.931 C 51.200 143.163,51.425 143.074,51.700 142.732 C 51.975 142.391,52.605 141.727,53.100 141.256 C 53.595 140.785,53.845 140.400,53.655 140.400 C 53.465 140.400,52.835 140.875,52.255 141.455 M216.503 151.903 L 226.000 161.406 226.000 200.200 L 226.000 238.994 216.497 229.497 L 206.994 220.000 200.394 220.000 L 193.794 220.000 184.400 229.400 C 179.234 234.570,174.870 238.800,174.703 238.800 C 174.536 238.800,174.400 221.461,174.400 200.269 L 174.400 161.737 184.080 152.069 L 193.760 142.400 200.383 142.400 L 207.006 142.400 216.503 151.903 M37.616 156.075 C 37.167 156.557,36.800 157.106,36.800 157.296 C 36.800 157.486,37.250 157.156,37.800 156.562 C 38.350 155.969,38.800 155.419,38.800 155.342 C 38.800 154.999,38.372 155.264,37.616 156.075 M365.600 159.317 C 365.930 159.603,366.447 160.098,366.749 160.418 C 367.219 160.916,367.235 160.877,366.860 160.147 C 366.619 159.678,366.102 159.183,365.711 159.046 C 365.092 158.830,365.078 158.865,365.600 159.317 M33.133 160.400 C 32.767 160.803,32.557 161.223,32.667 161.333 C 32.867 161.533,34.400 160.177,34.400 159.800 C 34.400 159.394,33.781 159.687,33.133 160.400 M29.700 164.034 C 28.122 165.543,27.763 166.000,28.155 166.000 C 28.241 166.000,29.132 165.190,30.136 164.200 C 31.141 163.210,31.836 162.402,31.681 162.404 C 31.526 162.407,30.635 163.140,29.700 164.034 M375.258 168.993 C 375.776 169.539,376.361 169.989,376.558 169.993 C 376.756 169.997,376.431 169.550,375.838 169.000 C 374.444 167.708,374.035 167.703,375.258 168.993 M19.429 174.229 C 18.649 175.009,18.630 175.240,19.369 174.957 C 19.682 174.836,20.036 174.482,20.157 174.169 C 20.440 173.430,20.209 173.449,19.429 174.229 M14.229 179.429 C 13.449 180.209,13.430 180.440,14.169 180.157 C 14.482 180.036,14.836 179.682,14.957 179.369 C 15.240 178.630,15.009 178.649,14.229 179.429 M390.007 183.442 C 390.014 183.824,392.000 185.837,392.000 185.463 C 392.000 185.341,391.550 184.756,391.000 184.162 C 390.450 183.569,390.003 183.244,390.007 183.442 M3.858 189.890 C 2.862 190.930,2.107 191.840,2.181 191.914 C 2.320 192.053,6.000 188.431,6.000 188.155 C 6.000 187.762,5.541 188.134,3.858 189.890 M148.985 316.600 C 148.985 326.940,149.036 331.227,149.100 326.128 C 149.163 321.028,149.163 312.568,149.100 307.328 C 149.037 302.087,148.985 306.260,148.985 316.600 M171.400 358.000 C 183.719 370.320,193.887 380.400,193.997 380.400 C 194.107 380.400,184.119 370.320,171.800 358.000 C 159.481 345.680,149.313 335.600,149.203 335.600 C 149.093 335.600,159.081 345.680,171.400 358.000 M234.778 351.900 L 233.400 353.400 234.900 352.022 C 236.296 350.738,236.584 350.400,236.278 350.400 C 236.212 350.400,235.537 351.075,234.778 351.900 M143.600 356.715 C 143.600 356.884,143.960 357.330,144.400 357.707 C 144.840 358.084,145.200 358.254,145.200 358.085 C 145.200 357.916,144.840 357.470,144.400 357.093 C 143.960 356.716,143.600 356.546,143.600 356.715 M242.900 370.163 C 242.405 370.685,242.000 371.249,242.000 371.415 C 242.000 371.581,242.450 371.231,243.000 370.638 C 243.891 369.677,244.199 369.186,243.900 369.207 C 243.845 369.211,243.395 369.641,242.900 370.163 M160.231 373.257 C 160.362 373.556,161.085 374.314,161.839 374.943 C 162.592 375.571,163.100 375.841,162.969 375.543 C 162.838 375.244,162.115 374.486,161.361 373.857 C 160.608 373.229,160.100 372.959,160.231 373.257 M238.259 374.813 C 237.412 375.686,236.833 376.400,236.973 376.400 C 237.279 376.400,240.000 373.716,240.000 373.413 C 240.000 373.054,239.853 373.172,238.259 374.813 M233.936 379.200 C 233.213 379.860,232.741 380.400,232.886 380.400 C 233.032 380.400,233.742 379.860,234.464 379.200 C 235.187 378.540,235.659 378.000,235.514 378.000 C 235.368 378.000,234.658 378.540,233.936 379.200 M219.372 393.707 C 218.917 394.198,218.398 394.870,218.219 395.200 C 218.040 395.530,218.458 395.204,219.147 394.475 C 220.259 393.300,220.615 392.785,220.300 392.807 C 220.245 392.811,219.828 393.216,219.372 393.707 M214.659 398.413 C 213.812 399.286,213.272 400.000,213.461 400.000 C 213.813 400.000,215.620 398.185,216.149 397.300 C 216.642 396.474,216.280 396.745,214.659 398.413 " stroke="none" fill="#198ad1" fill-rule="evenodd"></path><path id="path3" d="M197.119 219.898 C 198.944 219.972,201.824 219.972,203.519 219.897 C 205.214 219.822,203.720 219.761,200.200 219.762 C 196.680 219.762,195.294 219.824,197.119 219.898 M175.375 250.500 L 174.200 251.800 175.500 250.625 C 176.712 249.530,176.984 249.200,176.675 249.200 C 176.606 249.200,176.021 249.785,175.375 250.500 M225.905 283.730 L 226.009 316.185 216.308 325.892 L 206.606 335.600 200.222 335.600 L 193.837 335.600 184.119 325.911 L 174.400 316.222 174.310 294.011 C 174.261 281.795,174.166 274.905,174.101 278.700 L 173.981 285.600 161.591 285.600 L 149.200 285.600 149.200 310.501 L 149.200 335.403 171.701 357.901 L 194.203 380.400 200.401 380.404 L 206.600 380.407 228.891 357.904 L 251.182 335.400 251.191 310.500 L 251.200 285.600 238.800 285.600 L 226.400 285.600 226.400 268.624 C 226.400 259.287,226.265 251.564,226.100 251.462 C 225.935 251.360,225.847 265.881,225.905 283.730 " stroke="none" fill="#04bdf8" fill-rule="evenodd"></path><path id="path4" d="M193.345 1.000 C 193.218 1.330,192.864 1.600,192.557 1.600 C 192.251 1.600,192.000 1.772,192.000 1.981 C 192.000 2.191,191.145 3.171,190.100 4.159 C 187.229 6.873,186.833 7.200,186.413 7.200 C 186.199 7.200,186.129 7.470,186.255 7.800 C 186.401 8.180,186.250 8.400,185.843 8.400 C 185.489 8.400,185.200 8.580,185.200 8.800 C 185.200 9.319,183.719 10.800,183.200 10.800 C 182.980 10.800,182.800 11.049,182.800 11.353 C 182.800 11.658,182.440 12.001,182.000 12.116 C 181.560 12.231,181.200 12.623,181.200 12.986 C 181.200 13.350,181.033 13.544,180.829 13.418 C 180.625 13.292,180.343 13.551,180.202 13.993 C 180.062 14.436,179.492 14.912,178.935 15.052 C 178.185 15.240,178.063 15.394,178.462 15.647 C 178.830 15.880,178.849 15.990,178.521 15.994 C 177.838 16.003,176.001 17.785,175.994 18.446 C 175.989 18.906,175.930 18.908,175.647 18.462 C 175.394 18.063,175.240 18.185,175.052 18.935 C 174.912 19.492,174.436 20.062,173.993 20.202 C 173.551 20.343,173.292 20.625,173.418 20.829 C 173.544 21.033,173.379 21.200,173.051 21.200 C 172.722 21.200,172.340 21.560,172.200 22.000 C 172.060 22.440,171.688 22.800,171.373 22.800 C 171.058 22.800,170.800 22.980,170.800 23.200 C 170.800 23.719,169.319 25.200,168.800 25.200 C 168.580 25.200,168.400 25.489,168.400 25.843 C 168.400 26.250,168.180 26.401,167.800 26.255 C 167.470 26.129,167.200 26.199,167.200 26.413 C 167.200 26.832,166.874 27.228,164.178 30.081 C 163.200 31.116,162.388 31.746,162.373 31.481 C 162.358 31.216,162.133 31.449,161.873 31.997 C 161.310 33.183,160.159 34.400,159.600 34.400 C 159.380 34.400,159.200 34.640,159.200 34.932 C 159.200 35.225,158.750 35.706,158.201 36.000 C 157.651 36.294,157.280 36.613,157.376 36.709 C 157.653 36.986,155.541 38.800,154.942 38.800 C 154.644 38.800,154.400 39.004,154.400 39.254 C 154.400 39.504,153.950 40.125,153.400 40.635 C 152.850 41.145,152.397 41.795,152.394 42.081 C 152.389 42.452,152.277 42.429,152.000 42.000 C 151.669 41.487,151.611 41.502,151.606 42.100 C 151.603 42.485,151.409 42.800,151.176 42.800 C 150.943 42.800,150.856 42.967,150.982 43.171 C 151.108 43.375,150.846 43.658,150.400 43.800 C 149.954 43.942,149.679 44.204,149.790 44.383 C 149.900 44.562,149.633 44.803,149.196 44.917 C 148.758 45.031,148.400 45.400,148.400 45.736 C 148.400 46.071,148.037 46.461,147.594 46.602 C 147.151 46.743,146.852 46.980,146.931 47.129 C 147.009 47.278,146.753 47.704,146.362 48.075 C 145.865 48.546,145.597 48.607,145.474 48.275 C 145.378 48.014,145.164 48.306,145.000 48.924 C 144.808 49.648,144.505 49.973,144.151 49.836 C 143.848 49.720,143.600 49.868,143.600 50.164 C 143.600 50.743,140.577 54.044,140.300 53.767 C 140.209 53.676,139.902 54.036,139.618 54.567 C 139.333 55.098,138.745 55.626,138.310 55.739 C 137.875 55.853,137.599 56.093,137.696 56.273 C 137.925 56.696,136.546 58.012,136.217 57.684 C 136.080 57.547,135.870 57.810,135.750 58.268 C 135.631 58.726,135.104 59.330,134.580 59.611 C 134.056 59.891,133.683 60.228,133.750 60.360 C 133.917 60.685,132.518 61.985,132.270 61.737 C 132.162 61.628,131.955 61.913,131.810 62.369 C 131.665 62.825,131.121 63.305,130.600 63.436 C 130.048 63.574,129.736 63.888,129.850 64.187 C 129.970 64.498,129.603 64.819,128.924 65.000 C 128.306 65.164,128.014 65.378,128.275 65.474 C 128.607 65.597,128.546 65.865,128.075 66.362 C 127.704 66.753,127.278 67.009,127.129 66.931 C 126.980 66.852,126.749 67.132,126.616 67.551 C 126.482 67.970,126.019 68.406,125.587 68.519 C 125.154 68.633,124.800 69.023,124.800 69.386 C 124.800 69.750,124.633 69.944,124.429 69.818 C 124.225 69.692,123.942 69.954,123.800 70.400 C 123.658 70.846,123.375 71.108,123.171 70.982 C 122.967 70.856,122.800 70.943,122.800 71.176 C 122.800 71.409,122.485 71.603,122.100 71.606 C 121.502 71.611,121.487 71.669,122.000 72.000 C 122.429 72.277,122.452 72.389,122.081 72.394 C 121.795 72.397,121.145 72.850,120.635 73.400 C 120.125 73.950,119.504 74.400,119.254 74.400 C 119.004 74.400,118.800 74.644,118.800 74.942 C 118.800 75.541,116.986 77.653,116.709 77.376 C 116.613 77.280,116.294 77.651,116.000 78.201 C 115.706 78.750,115.225 79.200,114.932 79.200 C 114.640 79.200,114.400 79.380,114.400 79.600 C 114.400 80.159,113.183 81.310,111.997 81.873 C 111.449 82.133,111.216 82.358,111.481 82.373 C 111.746 82.388,111.116 83.200,110.081 84.178 C 107.228 86.874,106.832 87.200,106.413 87.200 C 106.199 87.200,106.129 87.470,106.255 87.800 C 106.401 88.180,106.250 88.400,105.843 88.400 C 105.489 88.400,105.200 88.580,105.200 88.800 C 105.200 89.319,103.719 90.800,103.200 90.800 C 102.980 90.800,102.800 91.049,102.800 91.353 C 102.800 91.658,102.440 92.001,102.000 92.116 C 101.560 92.231,101.200 92.623,101.200 92.986 C 101.200 93.350,101.033 93.544,100.829 93.418 C 100.625 93.292,100.343 93.551,100.202 93.993 C 100.062 94.436,99.492 94.912,98.935 95.052 C 98.185 95.240,98.063 95.394,98.462 95.647 C 98.834 95.883,98.851 95.990,98.518 95.994 C 97.893 96.002,96.002 97.893,95.994 98.518 C 95.990 98.851,95.883 98.834,95.647 98.462 C 95.394 98.063,95.240 98.185,95.052 98.935 C 94.912 99.492,94.436 100.062,93.993 100.202 C 93.551 100.343,93.279 100.604,93.390 100.783 C 93.500 100.962,93.233 101.203,92.796 101.317 C 92.358 101.431,92.000 101.812,92.000 102.163 C 92.000 102.513,91.730 102.800,91.400 102.800 C 91.070 102.800,90.800 102.980,90.800 103.200 C 90.800 103.719,89.319 105.200,88.800 105.200 C 88.580 105.200,88.400 105.489,88.400 105.843 C 88.400 106.250,88.180 106.401,87.800 106.255 C 87.470 106.129,87.200 106.199,87.200 106.413 C 87.200 106.832,86.874 107.228,84.178 110.081 C 83.200 111.116,82.388 111.746,82.373 111.481 C 82.358 111.216,82.133 111.449,81.873 111.997 C 81.310 113.183,80.159 114.400,79.600 114.400 C 79.380 114.400,79.200 114.640,79.200 114.932 C 79.200 115.225,78.750 115.706,78.201 116.000 C 77.651 116.294,77.280 116.613,77.376 116.709 C 77.653 116.986,75.541 118.800,74.942 118.800 C 74.644 118.800,74.400 119.004,74.400 119.254 C 74.400 119.504,73.950 120.125,73.400 120.635 C 72.850 121.145,72.397 121.795,72.394 122.081 C 72.389 122.452,72.277 122.429,72.000 122.000 C 71.669 121.487,71.611 121.502,71.606 122.100 C 71.603 122.485,71.409 122.800,71.176 122.800 C 70.943 122.800,70.856 122.967,70.982 123.171 C 71.108 123.375,70.846 123.658,70.400 123.800 C 69.954 123.942,69.679 124.204,69.790 124.383 C 69.900 124.562,69.633 124.803,69.196 124.917 C 68.758 125.031,68.400 125.400,68.400 125.736 C 68.400 126.071,68.037 126.461,67.594 126.602 C 67.151 126.743,66.852 126.980,66.931 127.129 C 67.009 127.278,66.753 127.704,66.362 128.075 C 65.865 128.546,65.597 128.607,65.474 128.275 C 65.378 128.014,65.164 128.306,65.000 128.924 C 64.819 129.603,64.498 129.970,64.187 129.850 C 63.888 129.736,63.574 130.048,63.436 130.600 C 63.305 131.121,62.836 131.662,62.393 131.802 C 61.951 131.943,61.652 132.180,61.731 132.329 C 61.898 132.648,60.544 134.011,60.301 133.767 C 60.209 133.676,59.902 134.036,59.618 134.567 C 59.333 135.098,58.745 135.626,58.310 135.739 C 57.875 135.853,57.599 136.093,57.696 136.273 C 57.925 136.696,56.546 138.012,56.217 137.684 C 56.080 137.547,55.870 137.810,55.750 138.268 C 55.631 138.726,55.098 139.333,54.567 139.618 C 54.036 139.902,53.676 140.209,53.767 140.300 C 54.044 140.577,50.743 143.600,50.164 143.600 C 49.868 143.600,49.720 143.848,49.836 144.151 C 49.973 144.505,49.648 144.808,48.924 145.000 C 48.306 145.164,48.014 145.378,48.275 145.474 C 48.607 145.597,48.546 145.865,48.075 146.362 C 47.704 146.753,47.278 147.009,47.129 146.931 C 46.980 146.852,46.749 147.132,46.616 147.551 C 46.482 147.970,46.019 148.406,45.587 148.519 C 45.154 148.633,44.800 149.023,44.800 149.386 C 44.800 149.750,44.633 149.944,44.429 149.818 C 44.225 149.692,43.942 149.954,43.800 150.400 C 43.658 150.846,43.375 151.108,43.171 150.982 C 42.967 150.856,42.800 150.943,42.800 151.176 C 42.800 151.409,42.485 151.603,42.100 151.606 C 41.502 151.611,41.487 151.669,42.000 152.000 C 42.429 152.277,42.452 152.389,42.081 152.394 C 41.795 152.397,41.145 152.850,40.635 153.400 C 40.125 153.950,39.504 154.400,39.254 154.400 C 39.004 154.400,38.800 154.644,38.800 154.942 C 38.800 155.541,36.986 157.653,36.709 157.376 C 36.613 157.280,36.294 157.651,36.000 158.201 C 35.706 158.750,35.225 159.200,34.932 159.200 C 34.640 159.200,34.400 159.380,34.400 159.600 C 34.400 160.159,33.183 161.310,31.997 161.873 C 31.449 162.133,31.216 162.358,31.481 162.373 C 31.746 162.388,31.116 163.200,30.081 164.178 C 27.228 166.874,26.832 167.200,26.413 167.200 C 26.199 167.200,26.129 167.470,26.255 167.800 C 26.401 168.180,26.250 168.400,25.843 168.400 C 25.489 168.400,25.200 168.580,25.200 168.800 C 25.200 169.319,23.719 170.800,23.200 170.800 C 22.980 170.800,22.800 171.058,22.800 171.373 C 22.800 171.688,22.440 172.060,22.000 172.200 C 21.560 172.340,21.200 172.722,21.200 173.051 C 21.200 173.379,21.033 173.544,20.829 173.418 C 20.625 173.292,20.343 173.551,20.202 173.993 C 20.062 174.436,19.492 174.912,18.935 175.052 C 18.185 175.240,18.063 175.394,18.462 175.647 C 18.908 175.930,18.906 175.989,18.446 175.994 C 17.785 176.001,16.003 177.838,15.994 178.521 C 15.990 178.849,15.880 178.830,15.647 178.462 C 15.394 178.063,15.240 178.185,15.052 178.935 C 14.912 179.492,14.436 180.062,13.993 180.202 C 13.551 180.343,13.279 180.604,13.390 180.783 C 13.500 180.962,13.233 181.203,12.796 181.317 C 12.358 181.431,12.000 181.812,12.000 182.163 C 12.000 182.513,11.730 182.800,11.400 182.800 C 11.070 182.800,10.800 182.980,10.800 183.200 C 10.800 183.719,9.319 185.200,8.800 185.200 C 8.580 185.200,8.400 185.489,8.400 185.843 C 8.400 186.250,8.180 186.401,7.800 186.255 C 7.470 186.129,7.200 186.199,7.200 186.413 C 7.200 186.833,6.873 187.229,4.159 190.100 C 3.171 191.145,2.191 192.000,1.981 192.000 C 1.772 192.000,1.600 192.251,1.600 192.557 C 1.600 192.864,1.330 193.218,1.000 193.345 C 0.670 193.471,0.400 193.805,0.400 194.086 C 0.400 194.367,9.210 185.789,19.977 175.023 C 30.744 164.257,39.445 155.258,39.313 155.025 C 39.180 154.791,39.228 154.742,39.418 154.916 C 39.859 155.317,75.237 119.983,74.915 119.463 C 74.784 119.250,74.850 119.184,75.063 119.315 C 75.517 119.596,119.734 75.499,119.416 75.083 C 119.297 74.927,119.327 74.897,119.482 75.016 C 119.899 75.334,155.196 39.917,154.915 39.463 C 154.784 39.250,154.850 39.184,155.063 39.315 C 155.275 39.447,164.257 30.744,175.023 19.977 C 185.789 9.210,194.367 0.400,194.086 0.400 C 193.805 0.400,193.471 0.670,193.345 1.000 M206.400 0.501 C 206.400 0.556,249.960 44.162,303.200 97.402 C 386.019 180.221,406.857 200.939,398.461 192.112 C 397.614 191.222,396.809 190.201,396.672 189.843 C 396.535 189.485,396.200 189.239,395.929 189.296 C 395.658 189.353,395.428 189.130,395.418 188.800 C 395.408 188.470,395.148 188.200,394.840 188.200 C 394.532 188.200,394.165 187.872,394.025 187.470 C 393.884 187.069,393.626 186.799,393.452 186.870 C 393.278 186.942,392.894 186.550,392.600 186.000 C 392.306 185.450,391.915 185.005,391.732 185.010 C 391.188 185.028,390.000 183.862,390.000 183.311 C 390.000 183.030,389.775 182.845,389.500 182.900 C 389.225 182.955,389.045 182.775,389.100 182.500 C 389.155 182.225,389.020 182.000,388.800 182.000 C 388.250 182.000,384.976 178.764,385.100 178.342 C 385.155 178.154,384.991 178.000,384.736 178.000 C 384.230 178.000,382.000 175.659,382.000 175.128 C 382.000 174.948,381.865 174.842,381.700 174.893 C 381.240 175.035,379.600 173.488,379.600 172.911 C 379.600 172.630,379.465 172.445,379.300 172.500 C 378.909 172.630,376.970 170.691,377.100 170.300 C 377.155 170.135,376.970 170.000,376.689 170.000 C 376.167 170.000,375.072 168.920,374.863 168.200 C 374.800 167.980,374.354 167.590,373.874 167.332 C 373.393 167.075,373.058 166.722,373.130 166.548 C 373.201 166.374,372.931 166.116,372.530 165.975 C 372.128 165.835,371.800 165.468,371.800 165.160 C 371.800 164.852,371.530 164.592,371.200 164.582 C 370.870 164.572,370.647 164.342,370.704 164.071 C 370.761 163.800,370.491 163.460,370.104 163.316 C 369.192 162.977,363.769 157.573,363.900 157.134 C 363.955 156.951,363.770 156.800,363.489 156.800 C 362.966 156.800,361.869 155.717,361.666 155.000 C 361.603 154.780,361.191 154.467,360.750 154.303 C 360.309 154.140,360.053 153.838,360.180 153.632 C 360.307 153.426,360.058 153.145,359.626 153.008 C 359.194 152.871,358.729 152.406,358.592 151.974 C 358.455 151.542,358.163 151.299,357.944 151.434 C 357.725 151.570,357.448 151.304,357.328 150.845 C 357.207 150.385,356.937 150.115,356.728 150.245 C 356.518 150.374,356.247 150.102,356.126 149.640 C 356.006 149.178,355.658 148.800,355.353 148.800 C 355.049 148.800,354.800 148.551,354.800 148.247 C 354.800 147.942,354.422 147.594,353.960 147.474 C 353.497 147.353,353.238 147.062,353.383 146.827 C 353.528 146.592,353.432 146.400,353.169 146.400 C 352.907 146.400,352.275 145.950,351.765 145.400 C 351.255 144.850,350.927 144.400,351.035 144.400 C 351.143 144.400,350.999 144.149,350.716 143.842 C 350.432 143.535,350.063 143.367,349.897 143.468 C 349.730 143.569,349.460 143.291,349.297 142.850 C 349.133 142.409,348.865 142.037,348.700 142.024 C 348.535 142.011,348.389 141.865,348.376 141.700 C 348.363 141.535,347.991 141.267,347.550 141.103 C 347.109 140.940,346.868 140.613,347.015 140.376 C 347.162 140.137,346.909 139.849,346.445 139.728 C 345.968 139.603,345.721 139.314,345.869 139.055 C 346.011 138.805,345.988 138.727,345.816 138.881 C 345.414 139.244,340.827 134.718,341.110 134.238 C 341.227 134.039,341.136 133.992,340.907 134.134 C 340.678 134.275,340.396 134.028,340.280 133.584 C 340.164 133.140,339.837 132.827,339.553 132.889 C 339.269 132.950,339.028 132.730,339.018 132.400 C 339.008 132.070,338.730 131.800,338.400 131.800 C 338.070 131.800,337.800 131.530,337.800 131.200 C 337.800 130.870,337.530 130.592,337.200 130.582 C 336.870 130.572,336.628 130.392,336.662 130.182 C 336.696 129.972,336.471 129.568,336.162 129.284 C 335.853 129.001,335.600 128.857,335.600 128.965 C 335.600 129.073,335.150 128.745,334.600 128.235 C 334.050 127.725,333.600 127.104,333.600 126.854 C 333.600 126.604,333.465 126.445,333.300 126.500 C 332.930 126.623,331.200 124.932,331.200 124.447 C 331.200 124.252,330.822 123.994,330.360 123.874 C 329.898 123.753,329.626 123.482,329.755 123.272 C 329.885 123.063,329.615 122.793,329.155 122.672 C 328.696 122.552,328.430 122.275,328.566 122.056 C 328.701 121.837,328.458 121.545,328.026 121.408 C 327.594 121.271,327.129 120.806,326.992 120.374 C 326.855 119.942,326.574 119.693,326.368 119.820 C 326.162 119.947,325.860 119.691,325.697 119.250 C 325.533 118.809,325.220 118.397,325.000 118.334 C 324.283 118.131,323.200 117.034,323.200 116.511 C 323.200 116.230,323.043 116.045,322.850 116.100 C 322.416 116.224,317.033 110.783,316.680 109.863 C 316.538 109.494,316.200 109.239,315.929 109.296 C 315.658 109.353,315.428 109.130,315.418 108.800 C 315.408 108.470,315.148 108.200,314.840 108.200 C 314.532 108.200,314.140 107.840,313.968 107.400 C 313.797 106.960,313.644 106.743,313.628 106.919 C 313.586 107.393,310.000 103.761,310.000 103.244 C 310.000 103.000,309.865 102.844,309.700 102.899 C 309.290 103.033,304.975 98.753,305.100 98.335 C 305.155 98.151,305.006 98.000,304.769 98.000 C 304.209 98.000,302.000 95.791,302.000 95.231 C 302.000 94.994,301.865 94.842,301.700 94.893 C 301.240 95.035,299.600 93.488,299.600 92.911 C 299.600 92.630,299.465 92.445,299.300 92.500 C 298.909 92.630,296.970 90.691,297.100 90.300 C 297.155 90.135,296.970 90.000,296.689 90.000 C 296.138 90.000,294.972 88.812,294.990 88.268 C 294.995 88.085,294.607 87.725,294.126 87.468 C 293.646 87.210,293.254 86.827,293.256 86.616 C 293.258 86.404,292.931 86.116,292.530 85.975 C 292.128 85.835,291.800 85.468,291.800 85.160 C 291.800 84.852,291.530 84.592,291.200 84.582 C 290.870 84.572,290.647 84.342,290.704 84.071 C 290.761 83.800,290.491 83.460,290.104 83.316 C 289.192 82.977,283.769 77.573,283.900 77.134 C 283.955 76.951,283.770 76.800,283.489 76.800 C 282.986 76.800,281.381 75.191,281.494 74.800 C 281.526 74.690,281.191 74.467,280.750 74.303 C 280.309 74.140,280.053 73.838,280.180 73.632 C 280.307 73.426,280.058 73.145,279.626 73.008 C 279.194 72.871,278.729 72.406,278.592 71.974 C 278.455 71.542,278.163 71.299,277.944 71.434 C 277.725 71.570,277.448 71.304,277.328 70.845 C 277.207 70.385,276.937 70.115,276.728 70.245 C 276.518 70.374,276.247 70.102,276.126 69.640 C 276.006 69.178,275.658 68.800,275.353 68.800 C 275.049 68.800,274.800 68.551,274.800 68.247 C 274.800 67.942,274.422 67.594,273.960 67.474 C 273.497 67.353,273.238 67.062,273.383 66.827 C 273.528 66.592,273.432 66.400,273.169 66.400 C 272.907 66.400,272.275 65.950,271.765 65.400 C 271.255 64.850,270.927 64.400,271.035 64.400 C 271.143 64.400,270.999 64.149,270.716 63.842 C 270.432 63.535,270.063 63.367,269.897 63.468 C 269.730 63.569,269.439 63.235,269.251 62.726 C 269.062 62.217,268.794 61.845,268.654 61.900 C 268.514 61.955,268.389 61.865,268.376 61.700 C 268.363 61.535,267.991 61.267,267.550 61.103 C 267.109 60.940,266.868 60.613,267.015 60.376 C 267.162 60.137,266.909 59.849,266.445 59.728 C 265.985 59.607,265.725 59.322,265.866 59.093 C 266.008 58.864,265.961 58.773,265.762 58.890 C 265.282 59.173,260.756 54.586,261.119 54.184 C 261.273 54.012,261.195 53.989,260.945 54.131 C 260.686 54.279,260.397 54.032,260.272 53.555 C 260.151 53.091,259.863 52.838,259.624 52.985 C 259.387 53.132,259.051 52.866,258.877 52.396 C 258.703 51.926,258.389 51.554,258.180 51.570 C 257.971 51.587,257.800 51.375,257.800 51.100 C 257.800 50.825,257.530 50.592,257.200 50.582 C 256.870 50.572,256.628 50.392,256.662 50.182 C 256.696 49.972,256.471 49.568,256.162 49.284 C 255.853 49.001,255.600 48.857,255.600 48.965 C 255.600 49.073,255.150 48.745,254.600 48.235 C 254.050 47.725,253.600 47.093,253.600 46.831 C 253.600 46.568,253.408 46.472,253.173 46.617 C 252.938 46.762,252.647 46.503,252.526 46.040 C 252.406 45.578,252.058 45.200,251.753 45.200 C 251.449 45.200,251.200 44.951,251.200 44.647 C 251.200 44.342,250.822 43.994,250.360 43.874 C 249.898 43.753,249.626 43.482,249.755 43.272 C 249.885 43.063,249.615 42.793,249.155 42.672 C 248.696 42.552,248.430 42.275,248.566 42.056 C 248.701 41.837,248.458 41.545,248.026 41.408 C 247.594 41.271,247.129 40.806,246.992 40.374 C 246.855 39.942,246.574 39.693,246.368 39.820 C 246.162 39.947,245.851 39.666,245.677 39.196 C 245.503 38.726,245.279 38.391,245.180 38.452 C 244.854 38.654,243.200 37.033,243.200 36.511 C 243.200 36.230,243.043 36.045,242.850 36.100 C 242.416 36.224,237.033 30.783,236.680 29.863 C 236.538 29.494,236.200 29.239,235.929 29.296 C 235.658 29.353,235.428 29.130,235.418 28.800 C 235.408 28.470,235.148 28.200,234.840 28.200 C 234.532 28.200,234.140 27.840,233.968 27.400 C 233.797 26.960,233.644 26.743,233.628 26.919 C 233.586 27.393,230.000 23.761,230.000 23.244 C 230.000 23.000,229.775 22.845,229.500 22.900 C 229.225 22.955,229.045 22.775,229.100 22.500 C 229.155 22.225,229.020 22.000,228.800 22.000 C 228.250 22.000,224.976 18.764,225.100 18.342 C 225.155 18.154,224.991 18.000,224.736 18.000 C 224.230 18.000,222.000 15.659,222.000 15.128 C 222.000 14.948,221.865 14.842,221.700 14.893 C 221.240 15.035,219.600 13.488,219.600 12.911 C 219.600 12.630,219.465 12.445,219.300 12.500 C 218.909 12.630,216.970 10.691,217.100 10.300 C 217.155 10.135,216.970 10.000,216.689 10.000 C 216.138 10.000,214.972 8.812,214.990 8.268 C 214.995 8.085,214.607 7.725,214.126 7.468 C 213.646 7.210,213.254 6.827,213.256 6.616 C 213.258 6.404,212.931 6.116,212.530 5.975 C 212.128 5.835,211.800 5.468,211.800 5.160 C 211.800 4.852,211.530 4.592,211.200 4.582 C 210.870 4.572,210.647 4.342,210.704 4.071 C 210.761 3.800,210.491 3.463,210.104 3.322 C 209.717 3.181,208.806 2.466,208.081 1.733 C 206.913 0.553,206.400 0.177,206.400 0.501 M106.900 113.300 L 20.000 200.201 20.000 219.603 L 20.000 239.005 32.902 251.902 C 39.999 258.996,45.900 264.800,46.017 264.800 C 46.133 264.800,40.417 258.999,33.314 251.908 L 20.400 239.016 20.400 219.585 L 20.400 200.153 37.907 182.777 C 47.535 173.220,61.931 158.965,69.898 151.100 L 84.383 136.800 102.802 136.800 L 121.221 136.800 122.594 135.550 C 123.350 134.863,139.680 118.670,158.884 99.566 L 193.800 64.831 200.248 64.815 L 206.696 64.800 220.648 78.634 C 228.322 86.242,244.621 102.442,256.868 114.634 L 279.136 136.800 297.619 136.800 L 316.102 136.800 318.951 139.597 C 320.518 141.136,325.850 146.369,330.800 151.226 C 335.750 156.083,348.935 169.167,360.100 180.301 C 371.265 191.435,380.400 200.355,380.400 200.123 C 380.400 199.719,208.651 28.272,207.000 27.028 C 206.369 26.553,204.888 26.423,200.000 26.413 L 193.799 26.400 106.900 113.300 M190.878 133.347 C 189.295 134.968,188.000 136.408,188.000 136.547 C 188.000 136.686,193.580 136.800,200.400 136.800 C 207.220 136.800,212.800 136.712,212.800 136.605 C 212.800 136.497,211.435 135.057,209.766 133.405 L 206.732 130.400 200.244 130.400 L 193.756 130.400 190.878 133.347 M116.560 232.436 C 98.982 250.041,84.517 264.570,84.416 264.723 C 84.315 264.875,98.633 250.638,116.233 233.084 C 133.834 215.530,148.369 201.302,148.534 201.467 C 148.699 201.632,148.707 231.802,148.552 268.512 L 148.271 335.256 171.032 357.928 L 193.792 380.600 171.308 358.000 L 148.825 335.400 149.078 268.164 C 149.248 222.894,149.198 200.846,148.925 200.677 C 148.702 200.539,134.137 214.831,116.560 232.436 M251.593 201.486 C 251.590 202.099,251.593 232.476,251.600 268.991 L 251.613 335.381 241.107 345.991 L 230.600 356.600 241.299 346.004 L 251.998 335.408 252.099 268.279 L 252.200 201.150 270.800 219.766 C 281.030 230.005,289.573 238.386,289.783 238.391 C 290.245 238.402,253.302 201.313,252.300 200.759 C 251.709 200.432,251.599 200.545,251.593 201.486 M293.587 242.587 C 295.662 244.670,297.435 246.298,297.529 246.204 C 297.746 245.987,290.574 238.800,290.140 238.800 C 289.962 238.800,291.513 240.504,293.587 242.587 M367.351 251.861 C 360.284 258.977,354.615 264.800,354.753 264.800 C 355.137 264.800,380.590 239.253,380.382 239.077 C 380.282 238.992,374.418 244.745,367.351 251.861 M0.400 245.428 C 0.400 245.683,1.671 247.131,3.224 248.646 C 4.776 250.161,6.621 252.013,7.324 252.762 C 8.026 253.511,9.215 254.681,9.967 255.362 C 10.720 256.043,11.620 256.939,11.967 257.353 C 12.315 257.767,13.202 258.667,13.939 259.353 C 14.675 260.039,15.575 260.940,15.939 261.355 C 16.302 261.771,17.481 262.941,18.558 263.955 C 19.634 264.970,20.804 266.132,21.158 266.538 C 21.887 267.377,28.754 274.254,29.868 275.262 C 30.271 275.626,32.558 277.922,34.952 280.365 L 39.304 284.805 68.352 284.703 C 87.466 284.635,97.366 284.463,97.300 284.200 C 97.235 283.939,87.077 283.764,68.088 283.697 L 38.976 283.595 19.688 264.280 C 9.080 253.657,0.400 245.173,0.400 245.428 M399.533 245.196 C 399.460 245.413,390.861 254.142,380.425 264.593 L 361.450 283.594 335.425 283.697 C 318.410 283.764,309.400 283.938,309.400 284.200 C 309.400 284.461,318.369 284.636,335.301 284.703 L 361.203 284.806 380.601 265.409 C 397.106 248.905,400.937 244.800,399.833 244.800 C 399.742 244.800,399.607 244.978,399.533 245.196 M127.861 247.132 C 127.497 247.535,127.315 247.982,127.459 248.125 C 127.678 248.345,129.200 246.958,129.200 246.539 C 129.200 246.152,128.446 246.486,127.861 247.132 M298.000 246.688 C 298.000 247.107,315.928 265.018,316.111 264.782 C 316.188 264.682,312.145 260.498,307.126 255.485 C 302.107 250.472,298.000 246.513,298.000 246.688 M125.023 250.489 C 124.231 251.620,124.218 252.249,125.000 251.600 C 125.330 251.326,125.600 250.869,125.600 250.584 C 125.600 250.300,125.825 249.976,126.100 249.865 C 126.462 249.719,126.468 249.654,126.123 249.632 C 125.860 249.614,125.365 250.000,125.023 250.489 M122.262 253.931 C 121.503 254.770,121.419 255.200,122.013 255.200 C 122.239 255.200,122.541 254.885,122.683 254.500 C 122.825 254.115,123.135 253.668,123.371 253.506 C 123.674 253.299,123.671 253.210,123.362 253.206 C 123.121 253.203,122.626 253.529,122.262 253.931 M119.182 257.634 C 118.667 258.596,119.056 259.273,119.616 258.388 C 120.008 257.768,120.129 256.800,119.814 256.800 C 119.712 256.800,119.427 257.175,119.182 257.634 M116.464 261.020 C 116.051 261.926,116.074 261.999,116.669 261.665 C 117.038 261.459,117.382 261.000,117.435 260.645 C 117.581 259.650,116.982 259.882,116.464 261.020 M113.614 264.374 C 112.977 265.565,113.120 265.797,114.000 265.000 C 114.857 264.224,115.042 263.600,114.414 263.600 C 114.202 263.600,113.842 263.948,113.614 264.374 M110.473 268.087 C 109.913 268.647,109.855 269.200,110.357 269.200 C 110.724 269.200,111.327 267.994,111.083 267.749 C 111.008 267.675,110.734 267.826,110.473 268.087 M107.832 271.276 C 107.185 272.199,107.255 272.660,107.973 272.216 C 108.208 272.071,108.400 271.683,108.400 271.353 C 108.400 271.023,108.580 270.864,108.800 271.000 C 109.020 271.136,109.200 271.057,109.200 270.824 C 109.200 270.112,108.480 270.350,107.832 271.276 M104.896 274.795 C 104.313 275.728,104.277 276.000,104.736 276.000 C 104.920 276.000,105.277 275.550,105.527 275.000 C 106.069 273.811,105.605 273.660,104.896 274.795 M102.223 278.089 C 101.880 278.578,101.600 279.131,101.600 279.318 C 101.600 279.838,102.959 278.363,103.049 277.744 C 103.162 276.973,102.939 277.067,102.223 278.089 M99.296 281.595 C 98.657 282.618,98.671 282.825,99.361 282.560 C 99.932 282.340,100.543 280.800,100.059 280.800 C 99.912 280.800,99.569 281.158,99.296 281.595 M129.600 342.219 C 129.600 342.340,130.018 342.835,130.530 343.319 C 131.041 343.804,131.580 344.526,131.727 344.925 C 131.874 345.324,132.160 345.548,132.363 345.423 C 132.566 345.298,132.812 345.421,132.911 345.698 C 133.010 345.974,133.224 346.076,133.387 345.925 C 133.549 345.774,132.838 344.829,131.805 343.825 C 129.970 342.042,129.600 341.773,129.600 342.219 M134.000 346.800 C 134.000 347.020,134.180 347.200,134.400 347.200 C 134.620 347.200,134.800 347.470,134.800 347.800 C 134.800 348.130,135.004 348.400,135.253 348.400 C 135.502 348.400,136.320 349.052,137.071 349.848 C 137.822 350.645,138.530 351.204,138.643 351.090 C 138.845 350.888,134.593 346.400,134.200 346.400 C 134.090 346.400,134.000 346.580,134.000 346.800 M138.962 352.062 C 138.785 352.348,138.852 352.415,139.138 352.238 C 139.412 352.069,139.600 352.207,139.600 352.576 C 139.600 352.919,139.876 353.200,140.213 353.200 C 140.550 353.200,140.989 353.605,141.188 354.100 C 141.387 354.595,141.563 354.820,141.581 354.600 C 141.598 354.380,141.780 354.465,141.984 354.788 C 142.189 355.112,142.471 355.262,142.612 355.122 C 142.839 354.894,139.858 351.600,139.424 351.600 C 139.327 351.600,139.119 351.808,138.962 352.062 M143.200 355.905 C 143.200 356.073,143.650 356.548,144.200 356.961 C 144.750 357.374,145.200 357.957,145.200 358.256 C 145.200 358.555,145.360 358.755,145.556 358.700 C 145.753 358.645,146.294 359.034,146.759 359.564 C 147.224 360.094,147.711 360.422,147.840 360.293 C 148.064 360.069,143.844 355.600,143.409 355.600 C 143.294 355.600,143.200 355.737,143.200 355.905 M227.775 359.300 L 226.600 360.600 227.900 359.425 C 228.615 358.779,229.200 358.194,229.200 358.125 C 229.200 357.816,228.870 358.088,227.775 359.300 M148.800 361.400 C 149.074 361.730,149.141 362.013,148.949 362.028 C 148.757 362.044,148.960 362.197,149.400 362.368 C 149.840 362.540,150.200 362.887,150.200 363.140 C 150.200 363.393,150.360 363.585,150.555 363.566 C 150.751 363.547,151.056 363.767,151.234 364.054 C 151.411 364.342,151.671 364.462,151.812 364.322 C 151.952 364.181,151.332 363.332,150.433 362.433 C 148.853 360.853,147.786 360.178,148.800 361.400 M222.575 364.500 L 221.400 365.800 222.700 364.625 C 223.415 363.979,224.000 363.394,224.000 363.325 C 224.000 363.016,223.670 363.288,222.575 364.500 M152.400 364.993 C 152.400 365.099,153.030 365.834,153.800 366.627 C 154.570 367.420,155.200 368.233,155.200 368.434 C 155.200 368.635,155.461 368.800,155.780 368.800 C 156.099 368.800,156.544 369.115,156.768 369.500 C 157.004 369.905,157.181 369.986,157.188 369.691 C 157.195 369.412,156.214 368.197,155.009 366.991 C 152.965 364.948,152.400 364.515,152.400 364.993 M236.667 375.933 C 231.003 381.600,226.511 386.392,226.685 386.582 C 226.858 386.773,226.808 386.819,226.574 386.686 C 226.339 386.553,223.099 389.527,219.374 393.296 C 215.648 397.064,212.956 399.889,213.390 399.574 C 213.825 399.258,214.611 398.550,215.138 398.000 C 215.665 397.450,216.244 397.041,216.424 397.092 C 216.604 397.142,216.872 396.804,217.019 396.339 C 217.230 395.674,217.362 395.612,217.638 396.047 C 217.918 396.489,217.989 396.464,217.994 395.921 C 218.000 395.279,219.776 393.040,220.339 392.965 C 221.286 392.840,222.022 392.261,221.581 391.988 C 221.246 391.781,221.362 391.603,221.952 391.415 C 222.423 391.266,223.081 390.616,223.415 389.972 C 223.748 389.327,224.297 388.800,224.634 388.800 C 224.971 388.800,225.130 388.611,224.987 388.379 C 224.843 388.145,225.248 387.761,225.900 387.515 C 226.607 387.248,227.248 386.607,227.515 385.900 C 227.761 385.248,228.145 384.843,228.379 384.987 C 228.611 385.130,228.800 384.971,228.800 384.634 C 228.800 384.297,229.327 383.748,229.972 383.415 C 230.616 383.081,231.266 382.423,231.415 381.952 C 231.603 381.362,231.781 381.246,231.988 381.581 C 232.261 382.022,232.840 381.286,232.965 380.339 C 233.038 379.790,235.272 377.999,235.921 377.968 C 236.294 377.951,236.388 377.850,236.129 377.745 C 235.850 377.631,236.420 376.766,237.529 375.621 C 238.558 374.558,239.580 373.787,239.800 373.908 C 240.020 374.029,240.080 373.994,239.933 373.831 C 239.631 373.493,240.990 372.000,241.600 372.000 C 241.820 372.000,242.000 371.770,242.000 371.489 C 242.000 370.904,243.642 369.365,244.111 369.511 C 244.282 369.564,244.543 369.293,244.690 368.909 C 244.838 368.525,245.498 367.718,246.157 367.116 C 246.816 366.514,247.267 365.933,247.159 365.826 C 247.052 365.718,242.330 370.267,236.667 375.933 M157.600 370.400 C 157.600 370.620,157.780 370.800,158.000 370.800 C 158.220 370.800,158.355 371.017,158.300 371.282 C 158.245 371.547,158.389 371.772,158.621 371.782 C 158.852 371.792,159.747 372.465,160.609 373.279 C 163.021 375.554,162.729 374.766,160.225 372.242 C 157.947 369.946,157.600 369.703,157.600 370.400 M162.559 375.700 C 162.401 375.975,162.402 376.084,162.561 375.942 C 162.851 375.683,164.800 377.262,164.800 377.756 C 164.800 378.243,186.821 400.000,187.314 400.001 C 187.581 400.001,182.234 394.421,175.430 387.601 C 168.627 380.780,163.012 375.200,162.954 375.200 C 162.895 375.200,162.718 375.425,162.559 375.700 " stroke="none" fill="#2f56a9" fill-rule="evenodd"></path></g></svg>